<?xml version="1.0" standalone="no"?><!DOCTYPE svg PUBLIC "-//W3C//DTD SVG 1.1//EN" "http://www.w3.org/Graphics/SVG/1.1/DTD/svg11.dtd"><svg t="1677051922206" class="icon" viewBox="0 0 1024 1024" version="1.1" xmlns="http://www.w3.org/2000/svg" p-id="4830" xmlns:xlink="http://www.w3.org/1999/xlink" width="200" height="200"><path d="M826.668581 311.533464c0-8.83361 7.163979-16.000395 15.997589-16.000395S858.667967 302.732124 858.667967 311.533464l0 613.801178c0 27.098529-11.134613 51.766973-29.001066 69.665696-17.86505 17.866453-42.567167 28.999663-69.665696 28.999663L264.0016 1024c-27.099932 0-51.832916-11.13321-69.667099-28.999663-17.866453-17.866453-28.999663-42.530688-28.999663-69.665696L165.334839 311.533464c0-8.83361 7.166785-16.000395 15.998992-16.000395 8.83361 0 16.000395 7.199055 16.000395 16.000395l0 613.801178c0 18.267725 7.534384 34.966839 19.600624 47.031676 12.066239 12.067642 28.766756 19.632894 47.033079 19.632894l496.002411 0c18.266322 0 34.93036-7.568058 46.999405-19.632894 12.099913-12.099913 19.631491-28.766756 19.631491-46.999405L826.601235 311.533464 826.668581 311.533464z" p-id="4831"></path><path d="M392.666997 884.000756c0 8.83361-7.166785 15.998992-16.000395 15.998992s-16.000395-7.165382-16.000395-15.998992l0-568.333904c0-8.83361 7.166785-16.000395 16.000395-16.000395s16.000395 7.166785 16.000395 16.000395L392.666997 884.000756z" p-id="4832"></path><path d="M528.001096 884.000756c0 8.83361-7.165382 15.998992-15.998992 15.998992s-16.000395-7.165382-16.000395-15.998992l0-568.333904c0-8.83361 7.166785-16.000395 16.000395-16.000395s15.998992 7.166785 15.998992 16.000395L528.001096 884.000756z" p-id="4833"></path><path d="M663.367465 884.000756c0 8.83361-7.163979 15.998992-15.997589 15.998992-8.835013 0-16.000395-7.165382-16.000395-15.998992l0-568.333904c0-8.83361 7.165382-16.000395 16.000395-16.000395 8.83361 0 15.997589 7.166785 15.997589 16.000395L663.367465 884.000756 663.367465 884.000756z" p-id="4834"></path><path d="M383.333901 98.666762c0 8.83361-7.166785 16.000395-16.000395 16.000395-8.832207 0-15.998992-7.166785-15.998992-16.000395 0-27.167278 11.099537-51.832916 28.967393-69.699369C398.168361 11.099537 422.835402 0 450.001277 0l124.000252 0c27.133605 0 51.800646 11.13321 69.664293 28.999663 17.866453 17.866453 29.001066 42.599437 29.001066 69.667099 0 8.83361-7.165382 16.000395-15.998992 16.000395s-15.998992-7.166785-15.998992-16.000395c0-18.266322-7.532981-34.966839-19.600624-47.033079-12.069045-12.067642-28.766756-19.634297-47.033079-19.634297l-123.998849 0c-18.299995 0-34.966839 7.532981-47.066752 19.600624C390.866883 63.699922 383.333901 80.366766 383.333901 98.666762z" p-id="4835"></path><path d="M139.999945 144.665792l744.00011 0c15.698739 0 30.032309 6.432989 40.433126 16.833807l0.065943 0.067346c10.400818 10.399415 16.833807 24.732985 16.833807 40.433126l0 41.333885c0 8.832207-7.166785 15.998992-16.000395 15.998992l-0.433543 0L98.667463 259.332948c-8.83361 0-16.000395-7.166785-16.000395-15.998992l0-0.39987 0-40.934015c0-15.666468 6.432989-30.033712 16.833807-40.433126l0.067346-0.067346C109.967637 151.100184 124.333477 144.665792 139.999945 144.665792L139.999945 144.665792zM884.001458 176.666581 139.999945 176.666581c-6.966149 0-13.333194 2.834163-17.866453 7.399691L122.066146 184.133619c-4.566931 4.531855-7.399691 10.866631-7.399691 17.866453l0 25.33349 794.633417 0 0-25.33349c0-6.966149-2.834163-13.333194-7.398288-17.866453l-0.06875-0.067346C897.302382 179.500744 890.967607 176.666581 884.001458 176.666581z" p-id="4836"></path></svg>